<svg xmlns="http://www.w3.org/2000/svg" width="1200" height="380" viewBox="0 0 1200 380" role="img" aria-label="Slide Stories — Slide no estilo stories, em TypeScript">
  <defs>
    <linearGradient id="bg" x1="0" y1="0" x2="1" y2="1">
      <stop offset="0%" stop-color="#833ab4"/>
      <stop offset="100%" stop-color="#fd1d1d"/>
    </linearGradient>
    <filter id="sombra" x="-20%" y="-20%" width="140%" height="140%">
      <feDropShadow dx="0" dy="10" stdDeviation="16" flood-color="#000000" flood-opacity=".28"/>
    </filter>
    <clipPath id="recorte"><rect width="428" height="252" rx="18"/></clipPath>
  </defs>

  <rect width="1200" height="380" rx="24" fill="url(#bg)"/>
  <circle cx="1105" cy="60" r="190" fill="#ffffff" opacity="0.08"/>
  <circle cx="110" cy="360" r="150" fill="#ffffff" opacity="0.064"/>

  <text x="72" y="148" font-family="system-ui,-apple-system,'Segoe UI',Roboto,sans-serif" font-size="52" font-weight="800" letter-spacing="-1" fill="#ffffff">Slide Stories</text>
  <text x="74" y="196" font-family="system-ui,-apple-system,'Segoe UI',Roboto,sans-serif" font-size="24" font-weight="600" fill="#ffffff">Slide no estilo stories, em TypeScript</text>
  <text x="74" y="232" font-family="system-ui,-apple-system,'Segoe UI',Roboto,sans-serif" font-size="17" fill="rgba(255,255,255,.78)">TypeScript · Vite · classes · Pointer Events</text>

  <g font-family="system-ui,-apple-system,'Segoe UI',Roboto,sans-serif" font-size="14" font-weight="600">
    <rect x="74" y="262" width="184" height="32" rx="16" fill="rgba(255,255,255,.18)"/>
    <circle cx="94" cy="278" r="4" fill="#ffffff"/><text x="106" y="283" fill="#ffffff">Avanço automático</text>
    <rect x="268" y="262" width="152" height="32" rx="16" fill="rgba(255,255,255,.18)"/>
    <circle cx="288" cy="278" r="4" fill="#ffffff"/><text x="300" y="283" fill="#ffffff">Segurar pausa</text>
    <rect x="430" y="262" width="87" height="32" rx="16" fill="rgba(255,255,255,.18)"/>
    <circle cx="450" cy="278" r="4" fill="#ffffff"/><text x="462" y="283" fill="#ffffff">Vídeo</text>
  </g>

  <g transform="translate(700,64)">
    <rect width="428" height="252" rx="18" fill="#0d1117" filter="url(#sombra)"/>
    <g clip-path="url(#recorte)">
    <rect width="428" height="252" rx="18" fill="#0d1117"/>
    <path d="M0 18a18 18 0 0 1 18-18h392a18 18 0 0 1 18 18v12H0z" fill="#161b22"/>
    <circle cx="22" cy="16" r="4.5" fill="#ff5f57"/><circle cx="38" cy="16" r="4.5" fill="#febc2e"/><circle cx="54" cy="16" r="4.5" fill="#28c840"/>
    <text x="241" y="20" text-anchor="middle" font-family="ui-monospace,SFMono-Regular,Menlo,Consolas,monospace,'Noto Color Emoji','Apple Color Emoji','Segoe UI Emoji'" font-size="11" fill="#7d8590">src/Interval.ts</text>
    <g font-family="ui-monospace,SFMono-Regular,Menlo,Consolas,monospace,'Noto Color Emoji','Apple Color Emoji','Segoe UI Emoji'" font-size="12.2" fill="#c9d1d9">
    <text x="20" y="58.2" xml:space="preserve"><tspan fill="#d2a8ff">pause</tspan><tspan>() {</tspan></text>
    <text x="20" y="77.11" xml:space="preserve"><tspan>  </tspan><tspan fill="#79c0ff">const</tspan><tspan> passed = Date.</tspan><tspan fill="#d2a8ff">now</tspan><tspan>() - </tspan><tspan fill="#79c0ff">this</tspan><tspan>.start;</tspan></text>
    <text x="20" y="96.02000000000001" xml:space="preserve"><tspan>  </tspan><tspan fill="#79c0ff">this</tspan><tspan>.timeLeft = </tspan><tspan fill="#79c0ff">this</tspan><tspan>.timeLeft - passed;</tspan></text>
    <text x="20" y="114.93" xml:space="preserve"><tspan>  </tspan><tspan fill="#79c0ff">this</tspan><tspan>.</tspan><tspan fill="#d2a8ff">clear</tspan><tspan>();</tspan></text>
    <text x="20" y="133.84" xml:space="preserve"><tspan>}</tspan></text>
    <text x="20" y="152.75" xml:space="preserve"><tspan fill="#d2a8ff">continue</tspan><tspan>() {</tspan></text>
    <text x="20" y="171.66000000000003" xml:space="preserve"><tspan>  </tspan><tspan fill="#79c0ff">this</tspan><tspan>.</tspan><tspan fill="#d2a8ff">clear</tspan><tspan>();</tspan></text>
    <text x="20" y="190.57" xml:space="preserve"><tspan>  </tspan><tspan fill="#79c0ff">this</tspan><tspan>.id = </tspan><tspan fill="#d2a8ff">setInterval</tspan><tspan>(</tspan><tspan fill="#79c0ff">this</tspan><tspan>.handler, </tspan><tspan fill="#79c0ff">this</tspan><tspan>.timeLeft);</tspan></text>
    <text x="20" y="209.48000000000002" xml:space="preserve"><tspan>  </tspan><tspan fill="#79c0ff">this</tspan><tspan>.start = Date.</tspan><tspan fill="#d2a8ff">now</tspan><tspan>();</tspan></text>
    <text x="20" y="228.39" xml:space="preserve"><tspan>}</tspan></text>
    </g>
    </g>
  </g>
</svg>
